<?xml version="1.0" encoding="iso-8859-1"?>
<!-- Generator: Adobe Illustrator 27.2.0, SVG Export Plug-In . SVG Version: 6.00 Build 0)  -->
<svg version="1.1" id="&#xB808;&#xC774;&#xC5B4;_1" xmlns="http://www.w3.org/2000/svg" xmlns:xlink="http://www.w3.org/1999/xlink"
	 x="0px" y="0px" viewBox="0 0 155 116" style="enable-background:new 0 0 155 116;" xml:space="preserve">
<path style="fill:#008837;" d="M17.824,82.615l38.147-60.091l5.361,9.226L30.79,79.498C30.79,79.498,19.819,81.616,17.824,82.615z"
	/>
<path style="fill:#008837;" d="M75.794,14.92L35.153,78.75c0,0,6.981-0.624,8.228-0.498l36.153-56.226L75.794,14.92z"/>
<path style="fill:#008837;" d="M91.186,11.157l-42.76,67.943c0,0,33.785-1.496,51.112,1.496c0,0,35.281,4.986,25.932,15.832
	c0,0-3.989,4.363-17.953,7.479c0,0,25.433-1.246,29.048-13.336c0,0,1.495-3.74-0.624-6.983L91.186,11.157z"/>
<path style="fill:#008837;" d="M29.061,89.231h3.069c1.364,0,3.518,0.383,3.518,5.14c0,2.648-0.874,5.408-3.476,5.408h-3.111V89.231
	z M25.926,102.562h6.631c5.052,0,6.352-4.982,6.352-8.438c0-3.053-1.066-7.675-6.225-7.675h-6.758V102.562z"/>
<path style="fill:#008837;" d="M46.524,90.084h0.042l1.897,6.372h-3.9L46.524,90.084z M43.71,99.239h5.65l0.979,3.322h3.475
	l-5.394-16.112h-3.688l-5.457,16.112h3.369L43.71,99.239z"/>
<path style="fill:#008837;" d="M67.116,89.299h-8.121v3.388h7.461v2.852h-7.461v4.173h8.484v2.851H55.861V86.449h11.255V89.299z"/>
<path style="fill:#008837;" d="M77.264,93.877h6.395v8.685h-2.131l-0.318-2.021c-0.812,0.988-1.984,2.446-4.777,2.446
	c-3.688,0-7.035-2.783-7.035-8.437c0-4.399,2.324-8.55,7.483-8.527c4.691,0,6.545,3.208,6.716,5.431h-3.198
	c0-0.629-1.086-2.648-3.346-2.648c-2.281,0-4.392,1.66-4.392,5.79c0,4.398,2.281,5.543,4.454,5.543c0.705,0,3.049-0.292,3.711-3.545
	h-3.561V93.877z"/>
<path style="fill:#008837;" d="M98.923,96.93c0,4.24-2.431,6.058-6.288,6.058c-1.408,0-3.498-0.359-4.861-1.952
	c-0.831-0.988-1.152-2.289-1.194-3.905V86.449h3.261v10.456c0,2.244,1.237,3.232,2.73,3.232c2.195,0,3.092-1.123,3.092-3.075V86.449
	h3.261V96.93z"/>
</svg>
